<?xml version="1.0" standalone="no"?>
<!DOCTYPE svg PUBLIC "-//W3C//DTD SVG 20010904//EN"
 "http://www.w3.org/TR/2001/REC-SVG-20010904/DTD/svg10.dtd">
<svg version="1.0" xmlns="http://www.w3.org/2000/svg"
 width="256.000000pt" height="256.000000pt" viewBox="0 0 256.000000 256.000000"
 preserveAspectRatio="xMidYMid meet">
<metadata>
Created by potrace 1.11, written by Peter Selinger 2001-2013
</metadata>
<g transform="translate(0.000000,256.000000) scale(0.100000,-0.100000)"
fill="#000000" stroke="none">
<path d="M392 1242 c-2 -890 0 -1058 12 -1087 29 -68 -9 -65 846 -65 855 0
817 -3 846 65 12 29 14 197 12 1087 l-2 1053 -7 -875 c-3 -481 -7 -962 -8
-1068 -1 -191 -1 -193 -26 -217 l-24 -25 -791 0 -791 0 -24 25 c-25 24 -25 26
-26 222 -1 109 -5 590 -8 1068 l-7 870 -2 -1053z"/>
<path d="M554 2246 c-17 -13 -19 -30 -22 -215 -3 -191 -2 -201 17 -220 21 -21
28 -21 701 -21 673 0 680 0 701 21 19 19 20 29 17 220 -3 185 -5 202 -22 215
-29 21 -1363 21 -1392 0z m1034 -73 l272 -6 0 -122 c0 -116 1 -123 23 -138 18
-12 20 -18 10 -28 -10 -10 -16 -10 -25 -1 -17 17 -1209 17 -1225 1 -13 -13
-43 -5 -43 12 0 6 9 13 20 16 19 5 20 14 20 134 l0 129 183 3 c434 7 508 7
765 0z"/>
<path d="M1577 2144 c-4 -4 -7 -30 -6 -58 1 -50 1 -50 10 -16 4 19 6 41 4 48
-3 8 8 12 35 12 40 0 40 0 40 -39 0 -22 5 -43 11 -46 7 -5 9 11 7 47 l-3 53
-45 3 c-25 2 -49 0 -53 -4z"/>
<path d="M1730 2141 c0 -6 18 -11 40 -11 l40 0 0 -40 0 -40 -40 0 c-22 0 -40
-4 -40 -10 0 -16 70 -12 86 5 10 10 14 29 12 57 l-3 43 -47 3 c-29 2 -48 -1
-48 -7z"/>
<path d="M1514 2125 c-4 -8 -4 -30 -2 -48 3 -32 3 -32 -37 -29 -40 4 -41 5
-37 37 2 18 -1 36 -8 40 -8 5 -10 -7 -8 -42 l3 -48 45 -3 45 -3 -3 -38 c-2
-21 1 -42 7 -45 7 -4 10 27 10 94 0 97 -3 116 -15 85z"/>
<path d="M1574 1980 c1 -42 3 -45 30 -48 15 -2 39 -1 52 2 21 6 24 12 24 52 0
28 -4 43 -10 39 -5 -3 -10 -24 -10 -46 0 -39 0 -39 -39 -39 -40 0 -40 0 -44
43 l-4 42 1 -45z"/>
<path d="M1810 1980 l0 -40 -42 -1 c-33 -2 -36 -3 -14 -6 15 -3 39 -2 52 1 20
5 24 13 24 46 0 22 -4 40 -10 40 -5 0 -10 -18 -10 -40z"/>
<path d="M538 1609 c-14 -8 -18 -24 -18 -77 0 -40 5 -73 12 -80 8 -8 51 -12
128 -12 77 0 120 4 128 12 7 7 12 40 12 80 0 56 -3 69 -19 78 -25 13 -220 13
-243 -1z m78 -34 c8 -32 20 -32 28 1 4 14 12 24 19 21 15 -5 22 -96 8 -110 -8
-8 -11 4 -12 39 0 39 -2 45 -9 27 -5 -13 -14 -23 -20 -23 -6 0 -15 10 -20 23
-7 18 -9 13 -9 -26 -1 -29 -5 -46 -11 -42 -11 7 -14 98 -3 108 13 13 23 7 29
-18z m142 -36 c15 -1 15 -2 0 -6 -10 -2 -18 -14 -19 -26 0 -20 -1 -21 -8 -3
-4 11 -16 23 -27 27 -17 7 -17 8 4 8 14 1 22 8 23 19 1 16 2 16 6 0 2 -10 12
-19 21 -19z"/>
<path d="M898 1609 c-14 -8 -18 -24 -18 -77 0 -40 5 -73 12 -80 8 -8 51 -12
128 -12 77 0 120 4 128 12 7 7 12 40 12 80 0 56 -3 69 -19 78 -25 13 -220 13
-243 -1z m80 -36 l10 -28 11 28 c18 46 31 31 29 -35 l-1 -63 -6 50 c-5 41 -8
46 -14 28 -5 -13 -12 -23 -17 -23 -5 0 -12 10 -17 23 -6 18 -9 13 -13 -28 l-6
-50 -4 63 c-5 67 10 86 28 35z m125 -50 c-7 -2 -19 -2 -25 0 -7 3 -2 5 12 5
14 0 19 -2 13 -5z"/>
<path d="M1258 1609 c-14 -8 -18 -24 -18 -77 0 -40 5 -73 12 -80 8 -8 51 -12
128 -12 77 0 120 4 128 12 7 7 12 39 12 74 0 89 -7 94 -138 94 -59 0 -115 -5
-124 -11z m58 -34 c3 -14 10 -25 14 -25 4 0 11 11 14 25 4 14 13 25 21 25 12
0 15 -14 15 -60 0 -33 -4 -60 -10 -60 -5 0 -10 21 -11 48 -1 43 -1 45 -11 20
-5 -16 -13 -28 -17 -28 -4 0 -12 12 -18 28 -10 25 -11 24 -12 -20 -1 -70 -21
-59 -21 12 0 46 3 60 15 60 8 0 17 -11 21 -25z m117 -25 c-14 -6 -23 -18 -23
-30 0 -12 10 -25 23 -30 22 -10 22 -10 -3 -7 -43 4 -41 78 2 76 l23 0 -22 -9z"/>
<path d="M1718 1609 c-14 -8 -18 -24 -18 -77 0 -40 5 -73 12 -80 8 -8 51 -12
128 -12 77 0 120 4 128 12 7 7 12 40 12 80 0 56 -3 69 -19 78 -25 13 -220 13
-243 -1z m142 -39 c0 -5 -4 -10 -10 -10 -5 0 -10 5 -10 10 0 6 5 10 10 10 6 0
10 -4 10 -10z m40 -40 c0 -5 -22 -10 -50 -10 -27 0 -50 5 -50 10 0 6 23 10 50
10 28 0 50 -4 50 -10z m-40 -40 c0 -5 -4 -10 -10 -10 -5 0 -10 5 -10 10 0 6 5
10 10 10 6 0 10 -4 10 -10z"/>
<path d="M538 1249 c-14 -8 -18 -24 -18 -77 0 -40 5 -73 12 -80 8 -8 52 -12
134 -12 140 0 134 -4 134 95 0 53 -3 66 -19 75 -25 13 -220 13 -243 -1z m151
-71 c-12 -29 -24 -61 -26 -70 -3 -10 -11 -18 -19 -18 -9 0 -6 15 12 55 13 31
24 60 24 65 0 5 -17 11 -37 13 -31 3 -29 4 14 5 l53 2 -21 -52z"/>
<path d="M896 1244 c-19 -19 -22 -134 -4 -152 17 -17 239 -17 256 0 7 7 12 40
12 80 0 85 -5 88 -144 88 -82 0 -108 -3 -120 -16z m158 -20 c12 -11 13 -20 6
-34 -8 -14 -7 -25 2 -40 18 -28 0 -54 -40 -58 -37 -4 -59 26 -43 56 6 10 7 29
4 40 -11 44 39 69 71 36z"/>
<path d="M1000 1200 c0 -13 7 -20 20 -20 13 0 20 7 20 20 0 13 -7 20 -20 20
-13 0 -20 -7 -20 -20z"/>
<path d="M998 1148 c-8 -21 2 -38 22 -38 23 0 32 13 24 34 -7 19 -40 21 -46 4z"/>
<path d="M1258 1249 c-14 -8 -18 -24 -18 -77 0 -40 5 -73 12 -80 17 -17 239
-17 256 0 7 7 12 40 12 80 0 56 -3 69 -19 78 -25 13 -220 13 -243 -1z m148
-23 c22 -17 25 -95 4 -121 -14 -17 -70 -21 -70 -5 0 6 10 10 23 10 23 0 47 17
47 32 0 5 -11 6 -24 2 -26 -6 -56 17 -56 43 0 20 28 53 45 53 6 0 20 -6 31
-14z"/>
<path d="M1354 1205 c-9 -23 3 -45 26 -45 16 0 20 7 20 30 0 23 -4 30 -20 30
-11 0 -23 -7 -26 -15z"/>
<path d="M1718 1249 c-14 -8 -18 -24 -18 -77 0 -40 5 -73 12 -80 17 -17 239
-17 256 0 7 7 12 40 12 80 0 56 -3 69 -19 78 -25 13 -220 13 -243 -1z m108
-46 c13 -17 15 -17 25 0 5 9 15 17 21 17 6 0 3 -11 -7 -26 -15 -23 -15 -27 -1
-49 22 -34 19 -45 -4 -16 l-20 23 -20 -23 c-23 -28 -27 -13 -5 19 14 19 14 24
-1 47 -18 28 -9 34 12 8z"/>
<path d="M538 969 c-14 -8 -18 -24 -18 -77 0 -40 5 -73 12 -80 17 -17 239 -17
256 0 7 7 12 40 12 80 0 56 -3 69 -19 78 -25 13 -220 13 -243 -1z m142 -63 c0
-26 5 -47 13 -50 10 -5 10 -7 0 -12 -7 -3 -13 -12 -13 -20 0 -8 -4 -14 -10
-14 -5 0 -10 7 -10 15 0 10 -10 15 -30 15 -37 0 -37 9 -4 66 34 58 54 58 54 0z"/>
<path d="M639 903 c-7 -16 -15 -31 -17 -35 -2 -5 6 -8 17 -8 17 0 21 6 21 35
0 42 -3 43 -21 8z"/>
<path d="M896 964 c-11 -10 -16 -34 -16 -74 0 -85 8 -90 136 -90 139 0 144 3
144 88 0 40 -5 73 -12 80 -19 19 -232 16 -252 -4z m159 -14 c-3 -5 -17 -10
-31 -10 -15 0 -24 -6 -24 -15 0 -8 8 -15 18 -15 37 0 57 -51 30 -78 -15 -15
-68 -16 -68 -1 0 6 8 8 19 4 16 -5 51 16 51 30 0 14 -35 35 -51 30 -16 -5 -19
-1 -19 29 0 35 1 36 41 36 24 0 38 -4 34 -10z"/>
<path d="M1258 969 c-14 -8 -18 -24 -18 -77 0 -40 5 -73 12 -80 17 -17 239
-17 256 0 7 7 12 40 12 80 0 56 -3 69 -19 78 -25 13 -220 13 -243 -1z m157
-19 c3 -6 -5 -10 -19 -10 -32 0 -45 -24 -38 -73 4 -32 8 -38 26 -35 32 5 29
50 -4 58 -17 4 -21 8 -12 14 20 12 51 -3 58 -29 13 -51 -44 -88 -76 -49 -21
24 -17 104 5 120 22 16 51 18 60 4z"/>
<path d="M1718 969 c-14 -8 -18 -24 -18 -77 0 -40 5 -73 12 -80 17 -17 239
-17 256 0 7 7 12 40 12 80 0 56 -3 69 -19 78 -25 13 -220 13 -243 -1z m182
-79 c0 -5 -22 -10 -50 -10 -27 0 -50 5 -50 10 0 6 23 10 50 10 28 0 50 -4 50
-10z"/>
<path d="M532 688 c-7 -7 -12 -40 -12 -78 0 -38 5 -71 12 -78 17 -17 239 -17
256 0 16 16 16 140 0 156 -17 17 -239 17 -256 0z m148 -63 c0 -37 4 -65 10
-65 6 0 10 -4 10 -10 0 -5 -16 -10 -35 -10 -19 0 -35 5 -35 10 0 6 7 10 15 10
12 0 15 13 15 55 0 44 -3 53 -15 49 -8 -4 -15 -2 -15 4 0 6 6 13 13 15 33 14
37 7 37 -58z"/>
<path d="M898 689 c-14 -8 -18 -24 -18 -77 0 -40 5 -73 12 -80 17 -17 239 -17
256 0 7 7 12 40 12 80 0 56 -3 69 -19 78 -25 13 -220 13 -243 -1z m150 -11
c20 -20 13 -51 -20 -85 l-32 -33 32 0 c18 0 32 -4 32 -10 0 -5 -18 -10 -40
-10 -48 0 -50 11 -10 57 17 18 30 43 30 54 0 18 -5 21 -30 17 -20 -3 -30 0
-30 9 0 16 52 17 68 1z"/>
<path d="M1256 684 c-19 -19 -22 -134 -4 -152 17 -17 239 -17 256 0 7 7 12 40
12 80 0 85 -5 88 -144 88 -82 0 -108 -3 -120 -16z m154 -19 c7 -8 10 -25 7
-37 -3 -11 -2 -29 3 -38 14 -26 -15 -60 -51 -60 -16 0 -29 5 -29 10 0 6 13 10
29 10 29 0 42 14 33 38 -2 6 -13 12 -23 12 -10 0 -19 5 -19 10 0 6 9 10 20 10
13 0 20 7 20 20 0 16 -7 20 -31 20 -17 0 -28 4 -24 10 9 15 51 12 65 -5z"/>
<path d="M1718 689 c-16 -9 -18 -31 -18 -223 0 -170 3 -216 14 -225 20 -17
242 -11 238 7 -1 6 4 11 10 10 10 -2 14 45 16 204 2 178 0 208 -14 222 -12 13
-38 16 -122 16 -59 0 -115 -5 -124 -11z m142 -179 c0 -27 3 -30 30 -30 17 0
30 -4 30 -10 0 -5 -13 -10 -30 -10 -27 0 -30 -3 -30 -30 0 -16 -4 -30 -10 -30
-5 0 -10 14 -10 30 0 27 -3 30 -30 30 -16 0 -30 5 -30 10 0 6 14 10 30 10 27
0 30 3 30 30 0 17 5 30 10 30 6 0 10 -13 10 -30z m33 -267 c-29 -2 -77 -2
-105 0 -29 2 -6 3 52 3 58 0 81 -1 53 -3z"/>
<path d="M532 408 c-7 -7 -12 -40 -12 -78 0 -38 5 -71 12 -78 17 -17 239 -17
256 0 16 16 16 140 0 156 -17 17 -239 17 -256 0z m172 -24 c32 -32 9 -124 -31
-124 -44 0 -69 71 -43 121 13 23 53 25 74 3z"/>
<path d="M651 376 c-7 -8 -11 -32 -9 -53 3 -33 6 -38 28 -38 22 0 25 5 28 38
3 36 -10 67 -28 67 -4 0 -13 -6 -19 -14z"/>
<path d="M892 408 c-16 -16 -16 -140 0 -156 17 -17 239 -17 256 0 7 7 12 40
12 80 0 56 -3 69 -19 78 -28 14 -234 13 -249 -2z m128 -118 c0 -5 -4 -10 -10
-10 -5 0 -10 5 -10 10 0 6 5 10 10 10 6 0 10 -4 10 -10z"/>
<path d="M1258 409 c-14 -8 -18 -24 -18 -77 0 -40 5 -73 12 -80 17 -17 239
-17 256 0 7 7 12 40 12 80 0 56 -3 69 -19 78 -25 13 -220 13 -243 -1z m182
-59 c0 -6 -27 -10 -60 -10 -33 0 -60 4 -60 10 0 6 27 10 60 10 33 0 60 -4 60
-10z m0 -60 c0 -6 -27 -10 -60 -10 -33 0 -60 4 -60 10 0 6 27 10 60 10 33 0
60 -4 60 -10z"/>
</g>
</svg>
